<svg width="60" height="60" viewBox="0 0 60 60" fill="none" xmlns="http://www.w3.org/2000/svg">
<path d="M29.77 17.5C27.1641 17.547 24.6381 18.4073 22.5453 19.9606C20.4525 21.514 18.8975 23.6827 18.098 26.1633C17.2984 28.6439 17.2943 31.3124 18.0861 33.7955C18.8779 36.2786 20.426 38.4521 22.514 40.012C22.8323 40.2507 23.0427 40.6061 23.0989 40.9999C23.1552 41.3937 23.0527 41.7937 22.814 42.112C22.5753 42.4303 22.22 42.6407 21.8261 42.6969C21.4323 42.7532 21.0323 42.6507 20.714 42.412C18.1957 40.5295 16.3095 37.9256 15.3056 34.946C14.3018 31.9664 14.2279 28.7519 15.0937 25.7293C15.9594 22.7067 17.724 20.0188 20.1531 18.0225C22.5822 16.0262 25.5609 14.8158 28.694 14.552L27.526 13.38C27.2611 13.0957 27.1168 12.7196 27.1237 12.331C27.1305 11.9424 27.2879 11.5716 27.5628 11.2968C27.8376 11.0219 28.2084 10.8645 28.597 10.8577C28.9856 10.8508 29.3617 10.995 29.646 11.26L33.89 15.502C34.1709 15.7833 34.3287 16.1645 34.3287 16.562C34.3287 16.9595 34.1709 17.3408 33.89 17.622L29.646 21.868C29.3617 22.133 28.9856 22.2772 28.597 22.2704C28.2084 22.2635 27.8376 22.1061 27.5628 21.8313C27.2879 21.5564 27.1305 21.1857 27.1237 20.7971C27.1168 20.4084 27.2611 20.0324 27.526 19.748L29.77 17.5ZM30.23 42.496C32.8359 42.449 35.3619 41.5887 37.4547 40.0354C39.5475 38.482 41.1025 36.3134 41.902 33.8327C42.7016 31.3521 42.7057 28.6836 41.9139 26.2005C41.1221 23.7174 39.574 21.5439 37.486 19.984C37.1678 19.7453 36.9574 19.39 36.9011 18.9961C36.8448 18.6023 36.9473 18.2023 37.186 17.884C37.4247 17.5657 37.7801 17.3553 38.1739 17.2991C38.5677 17.2428 38.9678 17.3453 39.286 17.584C41.8043 19.4665 43.6906 22.0704 44.6944 25.05C45.6982 28.0297 45.7721 31.2441 44.9064 34.2667C44.0406 37.2893 42.2761 39.9772 39.847 41.9735C37.4179 43.9698 34.4391 45.1802 31.306 45.444L32.474 46.614C32.6173 46.7523 32.7317 46.9178 32.8104 47.1007C32.8891 47.2837 32.9306 47.4805 32.9324 47.6797C32.9342 47.8789 32.8963 48.0764 32.821 48.2608C32.7457 48.4451 32.6344 48.6127 32.4936 48.7536C32.3528 48.8945 32.1854 49.0059 32.0011 49.0815C31.8168 49.157 31.6193 49.195 31.4201 49.1934C31.221 49.1917 31.0241 49.1505 30.8411 49.0719C30.658 48.9934 30.4925 48.8792 30.354 48.736L26.11 44.494C25.8291 44.2128 25.6713 43.8315 25.6713 43.434C25.6713 43.0365 25.8291 42.6553 26.11 42.374L30.354 38.13C30.4913 37.9826 30.6569 37.8644 30.8409 37.7824C31.0249 37.7005 31.2236 37.6564 31.425 37.6528C31.6264 37.6493 31.8264 37.6863 32.0132 37.7618C32.2 37.8372 32.3697 37.9495 32.5121 38.0919C32.6545 38.2344 32.7668 38.404 32.8423 38.5908C32.9177 38.7776 32.9548 38.9776 32.9512 39.1791C32.9476 39.3805 32.9036 39.5791 32.8216 39.7631C32.7396 39.9471 32.6214 40.1127 32.474 40.25L30.23 42.496Z" fill="white"/>
<circle cx="30" cy="30" r="29.5" stroke="white" stroke-opacity="0.33"/>
</svg>
